<?xml version="1.0" encoding="utf-8"?>
<!-- Generator: Adobe Illustrator 15.1.0, SVG Export Plug-In . SVG Version: 6.00 Build 0)  -->
<!DOCTYPE svg PUBLIC "-//W3C//DTD SVG 1.1//EN" "http://www.w3.org/Graphics/SVG/1.1/DTD/svg11.dtd">
<svg version="1.1" id="Layer_2" xmlns="http://www.w3.org/2000/svg" xmlns:xlink="http://www.w3.org/1999/xlink" x="0px" y="0px"
	 width="180px" height="49px" viewBox="0 0 180 49" enable-background="new 0 0 180 49" xml:space="preserve">
<g>
	<path fill="#FFFFFF" d="M22.644,30.422h2.263c-0.332,1.268-0.967,2.233-1.901,2.897c-0.936,0.694-2.112,1.041-3.531,1.041
		c-1.721,0-3.063-0.558-4.029-1.674c-0.966-1.087-1.449-2.642-1.449-4.663c0-1.931,0.468-3.441,1.403-4.528
		c0.964-1.116,2.308-1.674,4.029-1.674c1.81,0,3.214,0.543,4.209,1.629c0.543,0.665,0.936,1.435,1.178,2.308h-3.169
		c-0.152-0.3-0.301-0.527-0.453-0.678c-0.393-0.421-0.951-0.633-1.675-0.633c-0.664,0-1.208,0.212-1.63,0.633
		c-0.543,0.604-0.815,1.6-0.815,2.987c0,1.389,0.271,2.37,0.815,2.943c0.393,0.482,0.98,0.724,1.766,0.724
		c0.513,0,0.951-0.104,1.312-0.316c0.09-0.029,0.174-0.083,0.249-0.158c0.075-0.074,0.158-0.16,0.249-0.249
		c0.06-0.091,0.181-0.211,0.362-0.361C22.01,30.498,22.282,30.422,22.644,30.422z"/>
	<path fill="#FFFFFF" d="M34.26,33.637c-0.634,0.332-1.306,0.535-2.015,0.61c-0.71,0.075-1.335,0.113-1.878,0.113
		c-1.086,0-2.038-0.294-2.853-0.884c-0.814-0.587-1.222-1.561-1.222-2.918c0-1.269,0.369-2.174,1.109-2.718
		c0.74-0.542,1.682-0.904,2.829-1.086c0.151,0,0.332-0.022,0.543-0.066c0.212-0.046,0.452-0.083,0.725-0.113
		c1.329-0.183,1.992-0.573,1.992-1.178c0-0.453-0.233-0.747-0.701-0.883c-0.469-0.137-0.898-0.204-1.291-0.204
		c-0.422,0-0.8,0.061-1.131,0.181c-0.333,0.121-0.575,0.346-0.724,0.679H26.61c0.119-0.935,0.543-1.705,1.267-2.31
		c0.815-0.693,1.977-1.04,3.487-1.04c1.688,0,2.956,0.287,3.801,0.861c0.875,0.602,1.313,1.448,1.313,2.534v4.119
		c0,1.207-0.219,2.151-0.656,2.831C35.384,32.844,34.864,33.336,34.26,33.637z M33.536,28.067c-0.424,0.212-1.012,0.407-1.767,0.589
		l-1.041,0.227c-0.543,0.152-0.937,0.349-1.177,0.589c-0.211,0.33-0.317,0.663-0.317,0.995c0,0.453,0.136,0.815,0.408,1.087
		c0.271,0.242,0.663,0.362,1.176,0.362c0.844,0,1.508-0.241,1.992-0.725c0.481-0.481,0.725-1.146,0.725-1.992V28.067z"/>
	<path fill="#FFFFFF" d="M48.591,34.135h-1.583c-0.454,0-0.823-0.144-1.11-0.43c-0.287-0.286-0.43-0.657-0.43-1.111v-6.156
		c0-0.724-0.218-1.25-0.656-1.583s-0.928-0.499-1.471-0.499s-1.026,0.166-1.45,0.499c-0.422,0.333-0.633,0.859-0.633,1.583v7.697
		h-3.169v-7.062c0-2.053,0.536-3.426,1.607-4.121c1.071-0.694,2.256-1.071,3.554-1.131c1.328,0,2.55,0.347,3.667,1.04
		c1.116,0.696,1.675,2.099,1.675,4.212V34.135z"/>
	<path fill="#FFFFFF" d="M58.216,18.517h1.539c0.423,0,0.786,0.157,1.087,0.474s0.453,0.673,0.453,1.064v8.827
		c0,2.144-0.619,3.592-1.855,4.346c-1.239,0.755-2.581,1.132-4.029,1.132c-0.786,0-1.555-0.129-2.31-0.384
		c-0.753-0.258-1.358-0.672-1.81-1.246c-0.877-1.116-1.313-2.641-1.313-4.572c0-1.9,0.436-3.425,1.313-4.572
		c0.905-1.176,2.067-1.765,3.485-1.765c0.754,0,1.418,0.151,1.992,0.453c0.604,0.362,1.086,0.83,1.448,1.403V18.517z M53.056,28.023
		c0,1.208,0.226,2.128,0.679,2.761c0.453,0.634,1.102,0.95,1.947,0.95c0.814,0,1.449-0.316,1.901-0.95
		c0.422-0.633,0.633-1.553,0.633-2.761c0-1.087-0.226-1.946-0.679-2.58c-0.483-0.605-1.131-0.905-1.947-0.905
		c-0.784,0-1.402,0.316-1.855,0.95C53.281,26.093,53.056,26.937,53.056,28.023z"/>
	<path fill="#FFFFFF" d="M63.267,18.562h1.63c0.422,0,0.785,0.151,1.086,0.452c0.302,0.302,0.452,0.665,0.452,1.086v0.951h-3.168
		V18.562z M63.267,22.093h1.63c0.422,0,0.785,0.151,1.086,0.453c0.302,0.302,0.452,0.665,0.452,1.087v10.502h-3.168V22.093z"/>
	<path fill="#FFFFFF" d="M75.698,18.517h1.539c0.424,0,0.785,0.157,1.087,0.474c0.3,0.317,0.452,0.673,0.452,1.064v8.827
		c0,2.144-0.618,3.592-1.854,4.346c-1.239,0.755-2.581,1.132-4.029,1.132c-0.786,0-1.555-0.129-2.31-0.384
		c-0.755-0.258-1.357-0.672-1.81-1.246c-0.876-1.116-1.314-2.641-1.314-4.572c0-1.9,0.438-3.425,1.314-4.572
		c0.905-1.176,2.066-1.765,3.485-1.765c0.755,0,1.419,0.151,1.992,0.453c0.603,0.362,1.087,0.83,1.448,1.403V18.517z M70.538,28.023
		c0,1.208,0.227,2.128,0.68,2.761c0.453,0.634,1.102,0.95,1.945,0.95c0.815,0,1.449-0.316,1.902-0.95
		c0.422-0.633,0.634-1.553,0.634-2.761c0-1.087-0.226-1.946-0.679-2.58c-0.483-0.605-1.131-0.905-1.948-0.905
		c-0.785,0-1.401,0.316-1.854,0.95C70.765,26.093,70.538,26.937,70.538,28.023z"/>
	<path fill="#FFFFFF" d="M88.853,30.422h2.263c-0.332,1.268-0.966,2.233-1.9,2.897c-0.936,0.694-2.114,1.041-3.532,1.041
		c-1.719,0-3.062-0.558-4.028-1.674c-0.967-1.087-1.449-2.642-1.449-4.663c0-1.931,0.468-3.441,1.403-4.528
		c0.964-1.116,2.31-1.674,4.03-1.674c1.81,0,3.213,0.543,4.209,1.629c0.966,1.118,1.448,2.671,1.448,4.664c0,0.121,0,0.226,0,0.316
		s0,0.15,0,0.182c0,0.15-0.015,0.255-0.044,0.316H83.42c0.031,0.936,0.257,1.63,0.68,2.082c0.393,0.482,0.981,0.724,1.766,0.724
		c0.514,0,0.951-0.104,1.313-0.316c0.091-0.029,0.172-0.083,0.248-0.158c0.075-0.074,0.159-0.16,0.25-0.249
		c0.028-0.091,0.141-0.211,0.339-0.361C88.211,30.498,88.491,30.422,88.853,30.422z M83.42,26.892h4.618
		c-0.061-0.814-0.27-1.418-0.633-1.812c-0.394-0.421-0.95-0.633-1.675-0.633c-0.664,0-1.208,0.212-1.63,0.633
		C83.677,25.502,83.451,26.107,83.42,26.892z"/>
	<path fill="#FFFFFF" d="M93.228,18.562h1.629c0.422,0,0.784,0.151,1.086,0.452c0.302,0.302,0.452,0.665,0.452,1.086v0.951h-3.167
		V18.562z M93.228,22.093h1.629c0.422,0,0.784,0.151,1.086,0.453c0.302,0.302,0.452,0.665,0.452,1.087v10.502h-3.167V22.093z"/>
	<path fill="#FFFFFF" d="M103.031,34.135c-0.995,0.061-2.074,0.044-3.235-0.047c-1.163-0.09-1.743-0.829-1.743-2.219V18.562h1.63
		c0.392,0,0.738,0.151,1.039,0.452c0.303,0.302,0.455,0.665,0.455,1.086v2.037h1.854v0.634c0,0.454-0.151,0.822-0.451,1.109
		c-0.303,0.288-0.665,0.431-1.088,0.431h-0.315v6.7c0,0.514,0.3,0.769,0.904,0.769h0.95V34.135z"/>
	<path opacity="0.6" fill="#FFFFFF" d="M105.411,31.645h1.541v2.49h-2.489v-1.541C104.463,31.961,104.78,31.645,105.411,31.645z"/>
	<path opacity="0.6" fill="#FFFFFF" d="M109.695,33.048c-0.634-0.543-1.087-1.275-1.359-2.195c-0.271-0.92-0.407-1.879-0.407-2.874
		c0-0.816,0.115-1.63,0.341-2.445c0.225-0.813,0.581-1.493,1.063-2.038c0.784-0.904,1.794-1.44,3.032-1.606
		c1.237-0.166,2.354-0.068,3.351,0.294c1.146,0.453,1.991,1.237,2.535,2.355c0.513,0.995,0.769,2.157,0.769,3.485
		c0,0.966-0.105,1.795-0.316,2.488c-0.211,0.695-0.482,1.284-0.813,1.767c-0.726,0.996-1.647,1.614-2.763,1.856
		c-0.995,0.271-1.999,0.294-3.012,0.066C111.105,33.977,110.299,33.591,109.695,33.048z M111.867,25.08
		c-0.633,0.695-0.92,1.729-0.858,3.101c0.06,1.374,0.316,2.331,0.77,2.875c0.18,0.243,0.497,0.446,0.949,0.612
		c0.453,0.165,0.914,0.181,1.381,0.044c0.468-0.137,0.884-0.476,1.246-1.019c0.361-0.542,0.558-1.419,0.587-2.626
		c0-1.085-0.173-1.899-0.52-2.443c-0.348-0.544-0.747-0.891-1.2-1.042c-0.452-0.151-0.904-0.158-1.358-0.023
		C112.41,24.695,112.079,24.871,111.867,25.08z"/>
	<path opacity="0.6" fill="#FFFFFF" d="M120.679,34.135v-5.84c0-1.178,0.173-2.166,0.52-2.965c0.348-0.8,0.822-1.442,1.426-1.924
		c0.573-0.454,1.245-0.785,2.015-0.996c0.77-0.212,1.563-0.317,2.378-0.317c0.059,0,0.135,0,0.227,0c0.088,0,0.164,0,0.226,0v3.214
		h-1.042c-0.875,0-1.523,0.212-1.946,0.633c-0.424,0.424-0.633,1.086-0.633,1.993v6.202H120.679z"/>
	<path opacity="0.6" fill="#FFFFFF" d="M136.911,33.408V32.64c-0.544,0.846-1.276,1.374-2.195,1.586
		c-0.921,0.21-1.834,0.135-2.739-0.228c-0.905-0.361-1.684-1.033-2.332-2.015c-0.649-0.981-0.973-2.27-0.973-3.869
		c0-1.872,0.431-3.389,1.29-4.55c0.86-1.162,2.241-1.743,4.143-1.743c1.448,0,2.79,0.393,4.029,1.177
		c1.235,0.785,1.854,2.232,1.854,4.346v6.383c0,2.112-0.618,3.555-1.854,4.323c-1.239,0.771-2.581,1.154-4.029,1.154
		c-2.776,0-4.498-1.298-5.161-3.893h3.305c0.242,0.423,0.611,0.746,1.109,0.973s0.996,0.287,1.493,0.181
		c0.498-0.105,0.951-0.4,1.359-0.882C136.616,35.1,136.851,34.376,136.911,33.408z M131.751,28.204c0,2.082,0.603,3.235,1.81,3.464
		c1.207,0.226,2.099-0.054,2.672-0.839c0.27-0.331,0.467-0.854,0.587-1.562c0.121-0.709,0.129-1.41,0.024-2.105
		c-0.107-0.691-0.356-1.312-0.747-1.855c-0.393-0.543-0.967-0.814-1.721-0.814c-1.027,0-1.72,0.378-2.083,1.132
		C131.932,26.38,131.751,27.238,131.751,28.204z"/>
	<g>
		<image overflow="visible" width="95" height="75" xlink:href="E5A344FE.png"  transform="matrix(1 0 0 1 107.5 0)">
		</image>
	</g>
	<circle fill="#FFFFFF" cx="154.958" cy="16.019" r="6.721"/>
	<path fill="#FFFFFF" d="M162.862,23.966c-2.163,0.507-5.409,8.601-6.407,10.15c-0.874,1.357-3.133,2.589-5.348,0.373
		c-1.111-1.11-1.535-3.05-1.285-4.652c0.358-2.299,2.677-1.578,3.063-0.478c0.438,1.245-0.203,4.346,1.067,4.228
		c0.727-0.068,2.626-5.541,3.275-6.793c0.871-1.684,1.598-2.535,2.139-2.975c-0.003-0.069-0.06-0.136-0.234-0.163
		c-0.835,0.523-2.127,1.215-4.175,1.215c-2.975,0-3.902-1.716-5.787-1.716c-3.947,0-5.375,6.484-5.375,10.484
		c0,4.9,22.242,4.9,22.14,0.002C165.853,29.752,164.686,23.538,162.862,23.966z"/>
</g>
</svg>
