<?xml version="1.0" encoding="utf-8"?>
<!-- Generator: Adobe Illustrator 15.1.0, SVG Export Plug-In  -->
<!DOCTYPE svg PUBLIC "-//W3C//DTD SVG 1.1//EN" "http://www.w3.org/Graphics/SVG/1.1/DTD/svg11.dtd" [
	<!ENTITY ns_flows "http://ns.adobe.com/Flows/1.0/">
]>
<svg version="1.1"
	 xmlns="http://www.w3.org/2000/svg" xmlns:xlink="http://www.w3.org/1999/xlink" xmlns:a="http://ns.adobe.com/AdobeSVGViewerExtensions/3.0/"
	 x="0px" y="0px" width="182px" height="194px" viewBox="-3 -4.309 182 194"
	 overflow="visible" enable-background="new -3 -4.309 182 194" xml:space="preserve">
<defs>
</defs>
<polygon fill="#931111" points="176,4.932 170,0 170,17.691 176,21.839 "/>
<polygon fill="#931111" points="10,168.691 1,168.375 1,182.464 10,186.691 "/>
<polygon fill="#FF514E" stroke="#DD3A3A" stroke-miterlimit="10" points="175.5,52.837 0.5,181.055 0.5,134.559 175.5,6.34 "/>
<path fill="#FFFFFF" d="M25.145,149.328l-7.262-9.754c0.263-0.278,0.534-0.521,0.812-0.729c0.292-0.218,0.618-0.417,0.974-0.6
	l8.394,3.404l-4.626-6.211c0.318-0.318,0.638-0.597,0.961-0.838c0.302-0.226,0.619-0.419,0.949-0.583l7.263,9.753
	c-0.279,0.291-0.545,0.531-0.801,0.719c-0.275,0.206-0.596,0.404-0.963,0.595l-8.406-3.375l4.617,6.197
	c-0.278,0.289-0.581,0.555-0.906,0.797C25.822,148.947,25.488,149.156,25.145,149.328z"/>
<path fill="#FFFFFF" d="M32.702,139.236c-0.617-0.492-1.194-1.099-1.732-1.822c-0.538-0.722-0.957-1.453-1.255-2.191
	c-0.302-0.736-0.45-1.451-0.456-2.145c-0.003-0.692,0.157-1.359,0.48-1.992c0.324-0.633,0.85-1.224,1.579-1.765
	c0.729-0.545,1.445-0.879,2.145-1.008c0.697-0.128,1.38-0.089,2.042,0.113c0.662,0.205,1.303,0.555,1.921,1.054
	c0.617,0.5,1.196,1.111,1.733,1.833c0.538,0.723,0.957,1.448,1.254,2.18c0.3,0.73,0.451,1.443,0.458,2.139
	c0.007,0.696-0.151,1.361-0.471,1.997c-0.322,0.635-0.848,1.224-1.577,1.769c-0.729,0.542-1.445,0.877-2.147,1.004
	c-0.701,0.125-1.385,0.087-2.051-0.119C33.961,140.079,33.318,139.731,32.702,139.236z M32.958,135.933
	c1.667,2.238,3.203,2.833,4.611,1.787c1.398-1.042,1.264-2.683-0.396-4.924c-0.833-1.119-1.629-1.832-2.386-2.138
	c-0.755-0.307-1.491-0.193-2.204,0.338C31.167,132.05,31.29,133.695,32.958,135.933z"/>
<path fill="#FFFFFF" d="M48.996,131.567l-7.265-9.753c0.295-0.302,0.605-0.575,0.933-0.818c0.324-0.243,0.677-0.463,1.055-0.662
	l2.869,3.853l3.264-2.43l-2.869-3.853c0.294-0.303,0.604-0.575,0.926-0.815c0.325-0.242,0.679-0.464,1.06-0.667l7.265,9.753
	c-0.304,0.309-0.613,0.58-0.924,0.812c-0.336,0.249-0.689,0.472-1.062,0.668l-3.143-4.217l-3.264,2.429l3.143,4.218
	c-0.304,0.309-0.614,0.578-0.925,0.812C49.722,131.148,49.369,131.371,48.996,131.567z"/>
<path fill="#FFFFFF" d="M57.986,124.871l-4.204-12.031c0.167-0.167,0.335-0.321,0.495-0.462c0.162-0.142,0.347-0.289,0.553-0.443
	c0.182-0.135,0.363-0.258,0.545-0.374c0.179-0.114,0.385-0.235,0.611-0.363l10.309,7.486c-0.332,0.329-0.672,0.624-1.023,0.886
	c-0.345,0.256-0.697,0.477-1.06,0.662l-2.023-1.588l-3.223,2.4l0.927,2.405c-0.283,0.295-0.572,0.551-0.864,0.77
	C58.696,124.464,58.35,124.683,57.986,124.871z M58.248,119.085l2.298-1.711l-4.17-3.255L58.248,119.085z"/>
<path fill="#FFFFFF" d="M71.821,114.567l-7.262-9.753c0.366-0.341,0.713-0.658,1.039-0.949s0.701-0.595,1.126-0.912
	c0.484-0.361,0.998-0.672,1.535-0.934c0.537-0.26,1.08-0.418,1.625-0.472c0.547-0.055,1.083,0.026,1.604,0.242
	c0.52,0.215,1.007,0.624,1.456,1.228c0.27,0.362,0.465,0.716,0.586,1.057c0.121,0.341,0.193,0.665,0.214,0.974
	c0.022,0.307,0.011,0.592-0.033,0.856c-0.045,0.265-0.102,0.495-0.174,0.692l-0.111,0.311l5.405,2.417l-0.528,0.477
	c-0.186,0.166-0.381,0.325-0.587,0.479c-0.328,0.244-0.673,0.459-1.032,0.644l-5.897-2.682l0.198-0.405
	c0.082-0.158,0.175-0.353,0.28-0.586c0.106-0.234,0.186-0.489,0.242-0.764c0.053-0.276,0.058-0.562,0.017-0.863
	c-0.042-0.299-0.171-0.592-0.385-0.882c-0.427-0.572-0.903-0.87-1.426-0.896c-0.525-0.026-1.041,0.149-1.552,0.529
	c-0.197,0.147-0.368,0.294-0.509,0.443l6.159,8.269c-0.153,0.141-0.303,0.278-0.46,0.413c-0.153,0.136-0.308,0.261-0.462,0.376
	c-0.154,0.116-0.322,0.232-0.498,0.35C72.211,114.345,72.023,114.458,71.821,114.567z"/>
<path fill="#FFFFFF" d="M80.662,107.983l-7.265-9.753l5.521-4.111c0.256,0.229,0.487,0.486,0.696,0.769
	c0.225,0.3,0.41,0.604,0.557,0.914l-3.534,2.631l1.588,2.132l2.801-2.085c0.269,0.248,0.503,0.506,0.707,0.769
	c0.216,0.289,0.397,0.593,0.546,0.912l-2.801,2.085l1.919,2.576l3.627-2.702c0.252,0.231,0.487,0.485,0.701,0.765
	c0.224,0.3,0.407,0.606,0.552,0.918L80.662,107.983z"/>
<path fill="#FFFFFF" d="M87.803,102.161c-0.164-0.273-0.315-0.58-0.453-0.916c-0.136-0.337-0.261-0.681-0.374-1.036
	c0.485-0.12,0.919-0.264,1.304-0.431c0.382-0.169,0.758-0.389,1.13-0.666c0.57-0.424,0.936-0.864,1.102-1.32
	c0.167-0.455,0.088-0.9-0.237-1.335c-0.162-0.218-0.335-0.372-0.522-0.46c-0.188-0.09-0.378-0.138-0.574-0.148
	c-0.197-0.011-0.398,0.01-0.604,0.055c-0.206,0.046-0.411,0.098-0.616,0.154l-1.06,0.302c-0.391,0.104-0.757,0.174-1.098,0.211
	c-0.341,0.038-0.668,0.021-0.981-0.052c-0.31-0.073-0.612-0.212-0.907-0.417c-0.297-0.206-0.587-0.499-0.872-0.881
	c-0.343-0.46-0.57-0.925-0.679-1.394c-0.111-0.469-0.113-0.93-0.009-1.382c0.105-0.453,0.313-0.89,0.625-1.311
	c0.308-0.419,0.709-0.814,1.205-1.183c0.437-0.327,0.88-0.592,1.326-0.797c0.446-0.205,0.938-0.388,1.473-0.546
	c0.344,0.562,0.594,1.177,0.75,1.844l-0.521,0.13c-0.176,0.048-0.351,0.11-0.527,0.186c-0.177,0.077-0.369,0.174-0.575,0.292
	c-0.207,0.12-0.43,0.268-0.672,0.449c-0.154,0.115-0.301,0.244-0.441,0.39c-0.138,0.146-0.243,0.301-0.314,0.467
	c-0.072,0.168-0.096,0.352-0.073,0.552c0.021,0.202,0.119,0.415,0.288,0.643c0.135,0.182,0.281,0.311,0.438,0.388
	c0.157,0.077,0.322,0.116,0.493,0.12c0.17,0.005,0.344-0.012,0.523-0.048l0.536-0.14l1.054-0.287
	c0.43-0.105,0.829-0.184,1.197-0.233c0.367-0.051,0.724-0.036,1.062,0.042c0.341,0.08,0.674,0.232,1.002,0.462
	c0.328,0.228,0.658,0.569,0.994,1.018c0.337,0.454,0.565,0.928,0.684,1.423c0.117,0.495,0.125,0.99,0.021,1.484
	c-0.105,0.495-0.322,0.984-0.658,1.471c-0.334,0.486-0.794,0.947-1.38,1.384c-0.293,0.218-0.561,0.402-0.803,0.553
	c-0.245,0.152-0.484,0.286-0.721,0.401c-0.234,0.115-0.478,0.217-0.727,0.306C88.36,101.995,88.09,102.08,87.803,102.161z"/>
<path fill="#FFFFFF" d="M96.63,96.093l-7.294-9.793c0.391-0.346,0.789-0.688,1.201-1.027c0.41-0.34,0.831-0.67,1.263-0.994
	c0.446-0.331,0.931-0.623,1.459-0.876c0.528-0.255,1.069-0.397,1.623-0.427c0.551-0.028,1.106,0.089,1.659,0.353
	c0.556,0.264,1.101,0.752,1.632,1.466c0.531,0.714,0.842,1.374,0.933,1.976c0.091,0.604,0.047,1.166-0.133,1.688
	c-0.178,0.522-0.461,0.997-0.844,1.421c-0.384,0.424-0.792,0.799-1.23,1.124c-0.115,0.088-0.229,0.169-0.336,0.24
	c-0.107,0.074-0.208,0.139-0.308,0.199l2.361,3.17c-0.154,0.157-0.306,0.3-0.462,0.429c-0.154,0.128-0.311,0.251-0.465,0.366
	c-0.146,0.109-0.309,0.224-0.488,0.344C97.02,95.869,96.83,95.984,96.63,96.093z M95.061,89.838c0.124-0.064,0.231-0.131,0.324-0.2
	l0.349-0.26c0.223-0.166,0.423-0.358,0.593-0.578c0.173-0.218,0.292-0.458,0.355-0.721c0.063-0.261,0.061-0.543-0.007-0.838
	c-0.067-0.298-0.223-0.611-0.47-0.941c-0.251-0.34-0.516-0.588-0.787-0.747s-0.545-0.247-0.817-0.265
	c-0.273-0.02-0.54,0.023-0.799,0.125c-0.257,0.103-0.499,0.237-0.722,0.403c-0.1,0.076-0.194,0.147-0.276,0.216
	c-0.082,0.067-0.197,0.171-0.347,0.311L95.061,89.838z"/>
<path fill="#FFFFFF" d="M103.03,86.862c-0.618-0.493-1.194-1.099-1.732-1.822c-0.539-0.722-0.958-1.453-1.257-2.189
	c-0.299-0.737-0.451-1.453-0.455-2.147c-0.004-0.693,0.158-1.358,0.48-1.991c0.323-0.634,0.851-1.224,1.58-1.767
	c0.729-0.542,1.445-0.878,2.144-1.006c0.698-0.127,1.379-0.089,2.042,0.114s1.301,0.554,1.92,1.054
	c0.62,0.5,1.196,1.111,1.734,1.834c0.538,0.723,0.958,1.447,1.255,2.179s0.45,1.444,0.457,2.139c0.007,0.695-0.15,1.362-0.471,1.997
	c-0.32,0.635-0.846,1.225-1.575,1.768c-0.729,0.543-1.447,0.878-2.148,1.005c-0.701,0.125-1.386,0.086-2.052-0.119
	C104.288,87.704,103.647,87.356,103.03,86.862z M103.286,83.558c1.667,2.238,3.204,2.834,4.61,1.787
	c1.399-1.042,1.266-2.682-0.396-4.923c-0.834-1.119-1.629-1.833-2.386-2.139c-0.754-0.307-1.49-0.194-2.204,0.338
	C101.494,79.674,101.619,81.32,103.286,83.558z"/>
<path fill="#FFFFFF" d="M115.675,81.909l-7.265-9.754c0.264-0.278,0.534-0.521,0.814-0.728c0.292-0.219,0.617-0.418,0.972-0.601
	l8.395,3.404l-4.624-6.211c0.316-0.319,0.636-0.599,0.96-0.839c0.303-0.226,0.62-0.419,0.947-0.582l7.265,9.753
	c-0.279,0.291-0.548,0.531-0.801,0.721c-0.275,0.205-0.598,0.402-0.963,0.594l-8.407-3.375l4.615,6.198
	c-0.276,0.289-0.578,0.554-0.905,0.797C116.353,81.528,116.017,81.737,115.675,81.909z"/>
<path fill="#FFFFFF" d="M125.434,74.642l-7.265-9.754c0.347-0.326,0.715-0.659,1.106-0.998c0.39-0.339,0.839-0.697,1.346-1.074
	c1.668-1.242,3.255-1.764,4.755-1.562c1.501,0.201,2.884,1.15,4.148,2.848c1.273,1.709,1.768,3.297,1.488,4.761
	c-0.282,1.465-1.296,2.846-3.04,4.145c-0.458,0.341-0.893,0.639-1.305,0.894C126.257,74.157,125.844,74.403,125.434,74.642z
	 M126.257,71.597c0.085-0.05,0.196-0.116,0.329-0.198c0.135-0.083,0.292-0.191,0.472-0.325c0.414-0.308,0.764-0.642,1.049-1.005
	c0.286-0.359,0.465-0.766,0.536-1.215c0.072-0.452,0.025-0.948-0.141-1.49c-0.165-0.544-0.496-1.152-0.996-1.822
	c-0.485-0.653-0.969-1.139-1.448-1.462c-0.48-0.322-0.946-0.515-1.398-0.574c-0.453-0.061-0.885-0.018-1.299,0.128
	c-0.414,0.149-0.812,0.362-1.19,0.644c-0.128,0.095-0.273,0.207-0.438,0.335c-0.165,0.13-0.301,0.249-0.413,0.358L126.257,71.597z"
	/>
<path fill="#FFFFFF" d="M135.528,67.124l-7.265-9.753c0.295-0.302,0.605-0.575,0.932-0.818c0.325-0.242,0.677-0.463,1.055-0.662
	l7.265,9.753c-0.304,0.309-0.611,0.58-0.925,0.813C136.254,66.706,135.901,66.928,135.528,67.124z"/>
<path fill="#FFFFFF" d="M140.126,63.698l-7.262-9.753c0.345-0.326,0.712-0.659,1.105-0.998c0.389-0.339,0.838-0.697,1.344-1.074
	c1.67-1.242,3.255-1.764,4.755-1.562c1.503,0.202,2.886,1.151,4.15,2.848c1.274,1.71,1.77,3.298,1.486,4.762
	c-0.281,1.465-1.295,2.845-3.039,4.145c-0.458,0.341-0.893,0.639-1.304,0.895C140.949,63.214,140.54,63.46,140.126,63.698z
	 M140.949,60.655c0.088-0.049,0.198-0.117,0.33-0.199c0.135-0.081,0.292-0.19,0.472-0.325c0.415-0.308,0.764-0.642,1.048-1.004
	c0.286-0.361,0.465-0.767,0.535-1.217c0.075-0.451,0.026-0.948-0.137-1.491c-0.166-0.543-0.499-1.151-0.998-1.821
	c-0.486-0.654-0.969-1.14-1.449-1.463c-0.479-0.323-0.945-0.515-1.398-0.574c-0.451-0.061-0.885-0.018-1.298,0.128
	c-0.416,0.148-0.812,0.361-1.19,0.644c-0.128,0.096-0.274,0.207-0.439,0.336c-0.164,0.129-0.3,0.25-0.411,0.358L140.949,60.655z"/>
<path fill="#FFFFFF" d="M148.065,53.323c-0.617-0.493-1.195-1.1-1.733-1.822c-0.538-0.722-0.956-1.453-1.255-2.191
	c-0.3-0.736-0.451-1.45-0.455-2.145c-0.004-0.693,0.155-1.358,0.479-1.992c0.324-0.634,0.851-1.223,1.58-1.765
	c0.729-0.544,1.443-0.879,2.144-1.007c0.696-0.127,1.378-0.09,2.042,0.113c0.663,0.205,1.302,0.555,1.921,1.054
	c0.618,0.5,1.196,1.111,1.733,1.833c0.539,0.723,0.957,1.448,1.255,2.18c0.298,0.73,0.45,1.443,0.457,2.139
	c0.007,0.695-0.151,1.361-0.471,1.996c-0.322,0.636-0.846,1.225-1.575,1.769c-0.73,0.542-1.446,0.877-2.148,1.004
	c-0.702,0.125-1.386,0.087-2.051-0.118C149.323,54.165,148.683,53.816,148.065,53.323z M148.322,50.019
	c1.667,2.238,3.203,2.833,4.609,1.786c1.398-1.041,1.267-2.682-0.396-4.924c-0.834-1.119-1.629-1.832-2.386-2.138
	c-0.754-0.307-1.49-0.193-2.204,0.338C146.529,46.136,146.654,47.781,148.322,50.019z"/>
</svg>
